<svg width="566" height="612" viewBox="0 0 566 612" fill="none" xmlns="http://www.w3.org/2000/svg">
<g clip-path="url(#clip0_4_114)">
<path d="M14.85 541C13.75 541 12.85 540.65 12.15 539.95C11.45 539.25 11.1 538.35 11.1 537.25V439.75C11.1 438.65 11.45 437.75 12.15 437.05C12.85 436.35 13.75 436 14.85 436H54.6C67.1 436 76.95 438.9 84.15 444.7C91.35 450.4 94.95 458.65 94.95 469.45C94.95 476.75 93.2 482.85 89.7 487.75C86.2 492.65 81.5 496.3 75.6 498.7L96.75 536.2C97.05 536.8 97.2 537.35 97.2 537.85C97.2 538.65 96.9 539.4 96.3 540.1C95.7 540.7 94.95 541 94.05 541H77.4C75.6 541 74.25 540.55 73.35 539.65C72.45 538.65 71.8 537.75 71.4 536.95L53.1 502.6H34.95V537.25C34.95 538.35 34.6 539.25 33.9 539.95C33.2 540.65 32.3 541 31.2 541H14.85ZM34.95 483.55H54.15C59.65 483.55 63.7 482.3 66.3 479.8C69 477.3 70.35 473.8 70.35 469.3C70.35 464.8 69.05 461.25 66.45 458.65C63.85 456.05 59.75 454.75 54.15 454.75H34.95V483.55ZM112.446 541C111.346 541 110.446 540.65 109.746 539.95C109.046 539.25 108.696 538.35 108.696 537.25V438.25C108.696 437.15 109.046 436.25 109.746 435.55C110.446 434.85 111.346 434.5 112.446 434.5H128.646C129.646 434.5 130.496 434.85 131.196 435.55C131.896 436.25 132.246 437.15 132.246 438.25V472C134.946 468.8 138.246 466.25 142.146 464.35C146.046 462.45 150.746 461.5 156.246 461.5C162.146 461.5 167.346 462.85 171.846 465.55C176.446 468.15 180.046 472 182.646 477.1C185.246 482.1 186.546 488.2 186.546 495.4V537.25C186.546 538.35 186.196 539.25 185.496 539.95C184.796 540.65 183.896 541 182.796 541H166.446C165.446 541 164.596 540.65 163.896 539.95C163.196 539.25 162.846 538.35 162.846 537.25V496.3C162.846 491 161.546 486.9 158.946 484C156.346 481 152.646 479.5 147.846 479.5C143.146 479.5 139.346 481 136.446 484C133.646 486.9 132.246 491 132.246 496.3V537.25C132.246 538.35 131.896 539.25 131.196 539.95C130.496 540.65 129.646 541 128.646 541H112.446ZM213.11 569.5C212.31 569.5 211.56 569.2 210.86 568.6C210.26 568 209.96 567.25 209.96 566.35C209.96 566.15 210.01 565.85 210.11 565.45C210.21 565.15 210.36 564.75 210.56 564.25L222.26 536.2L193.46 468.25C193.16 467.45 193.01 466.8 193.01 466.3C193.11 465.4 193.46 464.65 194.06 464.05C194.66 463.35 195.41 463 196.31 463H210.86C212.16 463 213.11 463.35 213.71 464.05C214.31 464.65 214.76 465.3 215.06 466L233.66 512.5L252.71 466C253.11 465.2 253.61 464.5 254.21 463.9C254.81 463.3 255.76 463 257.06 463H271.31C272.21 463 272.96 463.35 273.56 464.05C274.26 464.65 274.61 465.35 274.61 466.15C274.61 466.65 274.41 467.35 274.01 468.25L231.56 566.5C231.26 567.3 230.76 568 230.06 568.6C229.46 569.2 228.51 569.5 227.21 569.5H213.11ZM321.104 541C314.904 541 309.604 540 305.204 538C300.804 535.9 297.454 532.7 295.154 528.4C292.954 524.1 291.854 518.7 291.854 512.2V480.7H280.154C279.054 480.7 278.154 480.35 277.454 479.65C276.754 478.95 276.404 478.05 276.404 476.95V466.75C276.404 465.65 276.754 464.75 277.454 464.05C278.154 463.35 279.054 463 280.154 463H291.854V438.25C291.854 437.15 292.204 436.25 292.904 435.55C293.704 434.85 294.604 434.5 295.604 434.5H310.304C311.404 434.5 312.304 434.85 313.004 435.55C313.704 436.25 314.054 437.15 314.054 438.25V463H332.804C333.804 463 334.654 463.35 335.354 464.05C336.054 464.75 336.404 465.65 336.404 466.75V476.95C336.404 478.05 336.054 478.95 335.354 479.65C334.654 480.35 333.804 480.7 332.804 480.7H314.054V510.4C314.054 514.2 314.704 517.2 316.004 519.4C317.404 521.5 319.804 522.55 323.204 522.55H334.154C335.154 522.55 336.004 522.9 336.704 523.6C337.404 524.3 337.754 525.15 337.754 526.15V537.25C337.754 538.35 337.404 539.25 336.704 539.95C336.004 540.65 335.154 541 334.154 541H321.104ZM351.591 541C350.491 541 349.591 540.65 348.891 539.95C348.191 539.25 347.841 538.35 347.841 537.25V438.25C347.841 437.15 348.191 436.25 348.891 435.55C349.591 434.85 350.491 434.5 351.591 434.5H367.791C368.791 434.5 369.641 434.85 370.341 435.55C371.041 436.25 371.391 437.15 371.391 438.25V472C374.091 468.8 377.391 466.25 381.291 464.35C385.191 462.45 389.891 461.5 395.391 461.5C401.291 461.5 406.491 462.85 410.991 465.55C415.591 468.15 419.191 472 421.791 477.1C424.391 482.1 425.691 488.2 425.691 495.4V537.25C425.691 538.35 425.341 539.25 424.641 539.95C423.941 540.65 423.041 541 421.941 541H405.591C404.591 541 403.741 540.65 403.041 539.95C402.341 539.25 401.991 538.35 401.991 537.25V496.3C401.991 491 400.691 486.9 398.091 484C395.491 481 391.791 479.5 386.991 479.5C382.291 479.5 378.491 481 375.591 484C372.791 486.9 371.391 491 371.391 496.3V537.25C371.391 538.35 371.041 539.25 370.341 539.95C369.641 540.65 368.791 541 367.791 541H351.591ZM444.241 541C443.241 541 442.391 540.65 441.691 539.95C440.991 539.25 440.641 538.35 440.641 537.25V466.75C440.641 465.65 440.991 464.75 441.691 464.05C442.391 463.35 443.241 463 444.241 463H458.191C459.191 463 460.041 463.35 460.741 464.05C461.541 464.75 461.941 465.65 461.941 466.75V471.85C463.941 469.05 466.691 466.65 470.191 464.65C473.791 462.65 478.041 461.6 482.941 461.5C494.541 461.3 502.491 465.7 506.791 474.7C509.091 470.8 512.391 467.65 516.691 465.25C521.091 462.75 525.891 461.5 531.091 461.5C536.291 461.5 540.991 462.7 545.191 465.1C549.391 467.4 552.691 471 555.091 475.9C557.591 480.7 558.841 486.9 558.841 494.5V537.25C558.841 538.35 558.491 539.25 557.791 539.95C557.091 540.65 556.241 541 555.241 541H540.391C539.391 541 538.541 540.65 537.841 539.95C537.141 539.25 536.791 538.35 536.791 537.25V495.7C536.791 491.6 536.191 488.4 534.991 486.1C533.791 483.7 532.191 482 530.191 481C528.291 480 526.141 479.5 523.741 479.5C521.641 479.5 519.591 480 517.591 481C515.691 482 514.091 483.7 512.791 486.1C511.591 488.4 510.991 491.6 510.991 495.7V537.25C510.991 538.35 510.641 539.25 509.941 539.95C509.241 540.65 508.341 541 507.241 541H492.541C491.441 541 490.541 540.65 489.841 539.95C489.141 539.25 488.791 538.35 488.791 537.25V495.7C488.791 491.6 488.191 488.4 486.991 486.1C485.791 483.7 484.191 482 482.191 481C480.291 480 478.191 479.5 475.891 479.5C473.791 479.5 471.741 480.05 469.741 481.15C467.741 482.15 466.091 483.8 464.791 486.1C463.591 488.4 462.991 491.55 462.991 495.55V537.25C462.991 538.35 462.641 539.25 461.941 539.95C461.241 540.65 460.391 541 459.391 541H444.241Z" fill="#2C3673"/>
<path d="M271.195 420.389C386.197 420.389 479.424 327.162 479.424 212.159C479.424 97.1574 386.197 3.92981 271.195 3.92981C156.193 3.92981 62.9649 97.1574 62.9649 212.159C62.9649 327.162 156.193 420.389 271.195 420.389Z" fill="#222A59"/>
<path d="M159.533 146.676C151.69 154.51 152.831 164.934 152.828 175.051L152.869 290.168C157.093 283.317 165.523 278.654 172.299 274.222L172.216 175.394C172.213 171.544 171.315 162.396 177.315 156.396C184.553 148.046 266.958 72.1369 269.43 71.0369C271.195 69.5752 272.249 70.3044 273.057 71.0369C299.257 94.8902 334.695 128.219 360.486 152.514C363.799 155.102 369.662 163.455 368.985 177.925V238.561C368.963 245.366 368.228 253.26 369.685 259.883C371.548 267.304 380.114 268.875 385.504 264.235C388.616 261.556 388.78 257.352 388.78 253.585C388.771 228.239 388.655 202.661 388.78 177.338C388.836 165.497 390.228 153.967 380.641 145.321L283.681 54.0388C274.018 44.517 268.486 44.6963 258.489 54.0388L159.533 146.676Z" fill="white"/>
<path d="M172.299 274.222C200.143 259.192 224.946 253.985 256.311 262.993C271.48 267.349 284.278 275.509 298.22 282.758C326.798 298.124 359.446 296.587 387.751 281.425C396.036 276.988 403.371 271.353 410.606 265.36C416.009 260.89 421.148 252.81 428.824 255.031C431.079 255.691 432.977 257.237 434.079 259.316C438.423 267.424 430.427 273.351 425.128 278.162C413.679 288.558 400.981 297.21 386.757 303.389C359.157 315.668 327.753 316.212 299.746 304.895C288.098 300.264 278.231 293.95 267.188 288.412C244.052 276.812 218.18 274.789 194.129 285.073C188.616 287.413 183.301 290.193 178.234 293.385C172.829 296.833 165.382 304.225 158.874 301.562C154.257 299.672 152.497 294.845 152.869 290.168C157.093 283.317 165.523 278.653 172.299 274.222Z" fill="#0F5C8C"/>
<path d="M221.136 298.639C238.02 295.94 264.207 302.819 279.155 310.779C300.847 322.331 316.792 332.935 342.745 332.693C359.377 332.412 375.623 327.614 389.734 318.808C393.897 316.242 401.875 309.937 406.184 309.372C408.44 309.074 410.718 309.734 412.464 311.193C416.579 314.583 417.205 321.285 413.566 325.229C411.215 327.77 407.736 329.827 404.866 331.768C390.685 341.354 371.599 349.721 354.432 351.143C335.013 354.151 311.467 349.467 294.304 340.584C270.986 328.513 253.086 316.412 225.183 317.893C209.001 318.752 195.234 323.815 181.094 331.815C177.066 334.097 172.128 339.05 167.596 339.772C165.209 340.135 162.777 339.538 160.83 338.108C156.558 334.966 156.081 328.539 159.523 324.602C162.664 321.006 166.832 318.513 170.816 315.986C186.359 306.13 202.791 300.357 221.136 298.639Z" fill="#AEEBF2"/>
<path d="M265.105 169.102H241.991C240.187 169.102 238.725 170.564 238.725 172.368V195.482C238.725 197.286 240.187 198.748 241.991 198.748H265.105C266.909 198.748 268.371 197.286 268.371 195.482V172.368C268.371 170.564 266.909 169.102 265.105 169.102Z" fill="#AEEBF2"/>
<path d="M300.398 169.102H277.284C275.48 169.102 274.018 170.564 274.018 172.368V195.482C274.018 197.286 275.48 198.748 277.284 198.748H300.398C302.202 198.748 303.664 197.286 303.664 195.482V172.368C303.664 170.564 302.202 169.102 300.398 169.102Z" fill="#AEEBF2"/>
<path d="M265.105 205.807H241.991C240.187 205.807 238.725 207.269 238.725 209.073V232.187C238.725 233.991 240.187 235.453 241.991 235.453H265.105C266.909 235.453 268.371 233.991 268.371 232.187V209.073C268.371 207.269 266.909 205.807 265.105 205.807Z" fill="#AEEBF2"/>
<path d="M300.398 205.807H277.284C275.48 205.807 274.018 207.269 274.018 209.073V232.187C274.018 233.991 275.48 235.453 277.284 235.453H300.398C302.202 235.453 303.664 233.991 303.664 232.187V209.073C303.664 207.269 302.202 205.807 300.398 205.807Z" fill="#AEEBF2"/>
<path d="M15.152 599V577.182H23.5043C25.081 577.182 26.3913 577.43 27.4354 577.928C28.4865 578.418 29.2713 579.089 29.7898 579.941C30.3153 580.793 30.5781 581.759 30.5781 582.839C30.5781 583.727 30.4077 584.487 30.0668 585.119C29.7259 585.744 29.2678 586.251 28.6925 586.642C28.1172 587.033 27.4744 587.313 26.7642 587.484V587.697C27.5384 587.739 28.2805 587.977 28.9908 588.411C29.7081 588.837 30.294 589.44 30.7486 590.222C31.2031 591.003 31.4304 591.947 31.4304 593.055C31.4304 594.185 31.157 595.2 30.6101 596.102C30.0632 596.997 29.2393 597.704 28.1385 598.222C27.0376 598.741 25.6527 599 23.9837 599H15.152ZM19.1044 595.697H23.3551C24.7898 595.697 25.8232 595.424 26.4553 594.877C27.0945 594.323 27.4141 593.613 27.4141 592.746C27.4141 592.1 27.2543 591.518 26.9347 590.999C26.6151 590.474 26.1605 590.062 25.571 589.763C24.9815 589.458 24.2784 589.305 23.4616 589.305H19.1044V595.697ZM19.1044 586.461H23.0142C23.696 586.461 24.3104 586.337 24.8572 586.088C25.4041 585.832 25.8338 585.474 26.1463 585.012C26.4659 584.543 26.6257 583.989 26.6257 583.35C26.6257 582.505 26.3274 581.809 25.7308 581.262C25.1413 580.715 24.2642 580.442 23.0994 580.442H19.1044V586.461ZM49.2223 577.182H53.1748V591.436C53.1748 592.999 52.8054 594.373 52.0668 595.559C51.3353 596.745 50.3054 597.672 48.9773 598.339C47.6492 599 46.0973 599.33 44.3218 599.33C42.5391 599.33 40.9837 599 39.6556 598.339C38.3275 597.672 37.2976 596.745 36.5661 595.559C35.8346 594.373 35.4688 592.999 35.4688 591.436V577.182H39.4212V591.106C39.4212 592.015 39.6201 592.825 40.0178 593.535C40.4226 594.245 40.9908 594.803 41.7223 595.207C42.4539 595.605 43.3203 595.804 44.3218 595.804C45.3232 595.804 46.1897 595.605 46.9212 595.207C47.6598 594.803 48.228 594.245 48.6257 593.535C49.0235 592.825 49.2223 592.015 49.2223 591.106V577.182ZM62.0232 577.182V599H58.0707V577.182H62.0232ZM66.9032 599V577.182H70.8556V595.687H80.4649V599H66.9032ZM91.8888 599H84.4953V577.182H92.038C94.2042 577.182 96.065 577.619 97.6204 578.492C99.1829 579.359 100.383 580.605 101.221 582.232C102.059 583.858 102.478 585.804 102.478 588.07C102.478 590.342 102.056 592.295 101.211 593.929C100.372 595.562 99.1615 596.816 97.5777 597.69C96.001 598.563 94.1047 599 91.8888 599ZM88.4478 595.58H91.6971C93.2169 595.58 94.4847 595.303 95.5003 594.749C96.5159 594.188 97.2794 593.354 97.7908 592.246C98.3022 591.131 98.5579 589.739 98.5579 588.07C98.5579 586.401 98.3022 585.016 97.7908 583.915C97.2794 582.807 96.523 581.979 95.5216 581.433C94.5273 580.879 93.2915 580.602 91.8142 580.602H88.4478V595.58ZM390.249 580.495V577.182H407.657V580.495H400.913V599H396.993V580.495H390.249ZM430.141 588.091C430.141 590.442 429.701 592.455 428.82 594.131C427.947 595.8 426.754 597.079 425.241 597.967C423.735 598.854 422.027 599.298 420.117 599.298C418.206 599.298 416.494 598.854 414.982 597.967C413.476 597.072 412.283 595.79 411.402 594.121C410.529 592.445 410.092 590.435 410.092 588.091C410.092 585.74 410.529 583.73 411.402 582.061C412.283 580.385 413.476 579.103 414.982 578.215C416.494 577.327 418.206 576.884 420.117 576.884C422.027 576.884 423.735 577.327 425.241 578.215C426.754 579.103 427.947 580.385 428.82 582.061C429.701 583.73 430.141 585.74 430.141 588.091ZM426.168 588.091C426.168 586.436 425.909 585.04 425.39 583.904C424.879 582.761 424.168 581.898 423.259 581.315C422.35 580.726 421.303 580.431 420.117 580.431C418.931 580.431 417.883 580.726 416.974 581.315C416.065 581.898 415.351 582.761 414.833 583.904C414.321 585.04 414.065 586.436 414.065 588.091C414.065 589.746 414.321 591.145 414.833 592.288C415.351 593.425 416.065 594.288 416.974 594.877C417.883 595.46 418.931 595.751 420.117 595.751C421.303 595.751 422.35 595.46 423.259 594.877C424.168 594.288 424.879 593.425 425.39 592.288C425.909 591.145 426.168 589.746 426.168 588.091ZM449.095 584.149C448.917 583.574 448.672 583.059 448.36 582.604C448.054 582.143 447.685 581.749 447.252 581.422C446.825 581.095 446.335 580.85 445.781 580.687C445.227 580.516 444.624 580.431 443.97 580.431C442.798 580.431 441.754 580.726 440.838 581.315C439.922 581.905 439.201 582.771 438.676 583.915C438.157 585.051 437.898 586.436 437.898 588.07C437.898 589.717 438.157 591.113 438.676 592.256C439.194 593.4 439.915 594.27 440.838 594.866C441.762 595.456 442.834 595.751 444.056 595.751C445.164 595.751 446.122 595.538 446.932 595.112C447.749 594.685 448.377 594.082 448.818 593.3C449.258 592.512 449.478 591.589 449.478 590.531L450.373 590.669H444.45V587.58H453.303V590.2C453.303 592.068 452.905 593.684 452.11 595.048C451.314 596.411 450.22 597.462 448.828 598.201C447.436 598.933 445.838 599.298 444.034 599.298C442.024 599.298 440.259 598.847 438.74 597.945C437.227 597.036 436.044 595.747 435.192 594.078C434.347 592.402 433.924 590.413 433.924 588.112C433.924 586.351 434.173 584.778 434.67 583.393C435.174 582.008 435.877 580.832 436.779 579.866C437.681 578.893 438.74 578.155 439.954 577.651C441.169 577.139 442.49 576.884 443.917 576.884C445.124 576.884 446.25 577.061 447.294 577.416C448.338 577.764 449.265 578.261 450.075 578.908C450.892 579.554 451.563 580.321 452.088 581.209C452.614 582.097 452.958 583.077 453.122 584.149H449.095ZM457.725 599V577.182H471.915V580.495H461.677V586.418H471.18V589.732H461.677V595.687H472V599H457.725ZM475.589 580.495V577.182H492.996V580.495H486.253V599H482.332V580.495H475.589ZM496.952 599V577.182H500.904V586.418H511.014V577.182H514.978V599H511.014V589.732H500.904V599H496.952ZM519.876 599V577.182H534.067V580.495H523.829V586.418H533.331V589.732H523.829V595.687H534.152V599H519.876ZM538.699 599V577.182H546.881C548.557 577.182 549.963 577.473 551.099 578.055C552.243 578.638 553.106 579.455 553.688 580.506C554.278 581.55 554.572 582.768 554.572 584.16C554.572 585.559 554.274 586.773 553.678 587.803C553.088 588.826 552.218 589.618 551.067 590.179C549.917 590.733 548.504 591.01 546.827 591.01H541V587.729H546.295C547.275 587.729 548.077 587.594 548.702 587.324C549.327 587.047 549.789 586.646 550.087 586.12C550.393 585.587 550.545 584.934 550.545 584.16C550.545 583.386 550.393 582.725 550.087 582.178C549.782 581.624 549.317 581.205 548.692 580.921C548.067 580.63 547.261 580.484 546.273 580.484H542.651V599H538.699ZM549.97 589.114L555.371 599H550.961L545.656 589.114H549.97Z" fill="#2C3673"/>
<path d="M122.916 599V577.182H131.098C132.774 577.182 134.181 577.473 135.317 578.055C136.46 578.638 137.323 579.455 137.906 580.506C138.495 581.55 138.79 582.768 138.79 584.16C138.79 585.559 138.492 586.773 137.895 587.803C137.306 588.826 136.436 589.618 135.285 590.179C134.134 590.733 132.721 591.01 131.045 591.01H125.218V587.729H130.512C131.492 587.729 132.295 587.594 132.92 587.324C133.545 587.047 134.007 586.646 134.305 586.12C134.61 585.587 134.763 584.934 134.763 584.16C134.763 583.386 134.61 582.725 134.305 582.178C134 581.624 133.534 581.205 132.909 580.921C132.284 580.63 131.478 580.484 130.491 580.484H126.869V599H122.916ZM134.188 589.114L139.589 599H135.179L129.873 589.114H134.188ZM143.028 599V577.182H157.219V580.495H146.981V586.418H156.483V589.732H146.981V595.687H157.304V599H143.028ZM173.708 583.18C173.609 582.249 173.19 581.525 172.451 581.006C171.719 580.488 170.768 580.229 169.596 580.229C168.772 580.229 168.065 580.353 167.476 580.602C166.886 580.85 166.435 581.187 166.123 581.614C165.81 582.04 165.651 582.526 165.643 583.073C165.643 583.528 165.746 583.922 165.952 584.256C166.165 584.589 166.453 584.874 166.815 585.108C167.178 585.335 167.579 585.527 168.019 585.683C168.459 585.839 168.903 585.971 169.351 586.077L171.396 586.589C172.22 586.781 173.012 587.04 173.772 587.366C174.539 587.693 175.224 588.105 175.828 588.602C176.439 589.099 176.922 589.7 177.277 590.403C177.632 591.106 177.81 591.93 177.81 592.874C177.81 594.153 177.483 595.278 176.83 596.251C176.176 597.217 175.231 597.974 173.996 598.521C172.767 599.06 171.279 599.33 169.532 599.33C167.834 599.33 166.361 599.067 165.111 598.542C163.868 598.016 162.895 597.249 162.192 596.241C161.496 595.232 161.119 594.004 161.062 592.555H164.951C165.008 593.315 165.242 593.947 165.654 594.451C166.066 594.955 166.602 595.332 167.263 595.58C167.93 595.829 168.676 595.953 169.5 595.953C170.359 595.953 171.112 595.825 171.758 595.57C172.412 595.307 172.923 594.945 173.293 594.483C173.662 594.014 173.85 593.467 173.857 592.842C173.85 592.274 173.683 591.805 173.356 591.436C173.03 591.06 172.572 590.747 171.982 590.499C171.4 590.243 170.718 590.016 169.937 589.817L167.455 589.178C165.658 588.716 164.237 588.016 163.193 587.079C162.156 586.134 161.638 584.881 161.638 583.318C161.638 582.033 161.986 580.907 162.682 579.941C163.385 578.975 164.34 578.226 165.548 577.693C166.755 577.153 168.122 576.884 169.649 576.884C171.197 576.884 172.554 577.153 173.719 577.693C174.891 578.226 175.81 578.968 176.478 579.92C177.146 580.864 177.49 581.951 177.511 583.18H173.708ZM181.933 599V577.182H190.115C191.791 577.182 193.197 577.494 194.334 578.119C195.477 578.744 196.34 579.604 196.923 580.697C197.512 581.784 197.807 583.02 197.807 584.405C197.807 585.804 197.512 587.047 196.923 588.134C196.333 589.22 195.463 590.076 194.312 590.701C193.162 591.319 191.745 591.628 190.062 591.628H184.639V588.379H189.529C190.509 588.379 191.312 588.208 191.937 587.867C192.562 587.526 193.023 587.058 193.322 586.461C193.627 585.864 193.78 585.179 193.78 584.405C193.78 583.631 193.627 582.949 193.322 582.359C193.023 581.77 192.558 581.312 191.926 580.985C191.301 580.651 190.495 580.484 189.508 580.484H185.886V599H181.933ZM221.336 588.091C221.336 590.442 220.895 592.455 220.015 594.131C219.141 595.8 217.948 597.079 216.435 597.967C214.929 598.854 213.221 599.298 211.311 599.298C209.4 599.298 207.689 598.854 206.176 597.967C204.67 597.072 203.477 595.79 202.596 594.121C201.723 592.445 201.286 590.435 201.286 588.091C201.286 585.74 201.723 583.73 202.596 582.061C203.477 580.385 204.67 579.103 206.176 578.215C207.689 577.327 209.4 576.884 211.311 576.884C213.221 576.884 214.929 577.327 216.435 578.215C217.948 579.103 219.141 580.385 220.015 582.061C220.895 583.73 221.336 585.74 221.336 588.091ZM217.362 588.091C217.362 586.436 217.103 585.04 216.584 583.904C216.073 582.761 215.363 581.898 214.454 581.315C213.544 580.726 212.497 580.431 211.311 580.431C210.125 580.431 209.077 580.726 208.168 581.315C207.259 581.898 206.545 582.761 206.027 583.904C205.515 585.04 205.26 586.436 205.26 588.091C205.26 589.746 205.515 591.145 206.027 592.288C206.545 593.425 207.259 594.288 208.168 594.877C209.077 595.46 210.125 595.751 211.311 595.751C212.497 595.751 213.544 595.46 214.454 594.877C215.363 594.288 216.073 593.425 216.584 592.288C217.103 591.145 217.362 589.746 217.362 588.091ZM243.602 577.182V599H240.086L229.806 584.138H229.625V599H225.672V577.182H229.209L239.479 592.054H239.671V577.182H243.602ZM260.366 583.18C260.266 582.249 259.847 581.525 259.109 581.006C258.377 580.488 257.426 580.229 256.254 580.229C255.43 580.229 254.723 580.353 254.134 580.602C253.544 580.85 253.093 581.187 252.781 581.614C252.468 582.04 252.308 582.526 252.301 583.073C252.301 583.528 252.404 583.922 252.61 584.256C252.823 584.589 253.111 584.874 253.473 585.108C253.835 585.335 254.237 585.527 254.677 585.683C255.117 585.839 255.561 585.971 256.009 586.077L258.054 586.589C258.878 586.781 259.67 587.04 260.43 587.366C261.197 587.693 261.882 588.105 262.486 588.602C263.097 589.099 263.58 589.7 263.935 590.403C264.29 591.106 264.467 591.93 264.467 592.874C264.467 594.153 264.141 595.278 263.487 596.251C262.834 597.217 261.889 597.974 260.654 598.521C259.425 599.06 257.937 599.33 256.19 599.33C254.492 599.33 253.019 599.067 251.769 598.542C250.526 598.016 249.553 597.249 248.85 596.241C248.154 595.232 247.777 594.004 247.72 592.555H251.609C251.666 593.315 251.9 593.947 252.312 594.451C252.724 594.955 253.26 595.332 253.921 595.58C254.588 595.829 255.334 595.953 256.158 595.953C257.017 595.953 257.77 595.825 258.416 595.57C259.07 595.307 259.581 594.945 259.95 594.483C260.32 594.014 260.508 593.467 260.515 592.842C260.508 592.274 260.341 591.805 260.014 591.436C259.688 591.06 259.23 590.747 258.64 590.499C258.058 590.243 257.376 590.016 256.595 589.817L254.112 589.178C252.315 588.716 250.895 588.016 249.851 587.079C248.814 586.134 248.296 584.881 248.296 583.318C248.296 582.033 248.644 580.907 249.34 579.941C250.043 578.975 250.998 578.226 252.205 577.693C253.413 577.153 254.78 576.884 256.307 576.884C257.855 576.884 259.212 577.153 260.377 577.693C261.548 578.226 262.468 578.968 263.136 579.92C263.803 580.864 264.148 581.951 264.169 583.18H260.366ZM272.543 577.182V599H268.591V577.182H272.543ZM277.423 599V577.182H285.776C287.352 577.182 288.663 577.43 289.707 577.928C290.758 578.418 291.543 579.089 292.061 579.941C292.587 580.793 292.85 581.759 292.85 582.839C292.85 583.727 292.679 584.487 292.338 585.119C291.997 585.744 291.539 586.251 290.964 586.642C290.389 587.033 289.746 587.313 289.036 587.484V587.697C289.81 587.739 290.552 587.977 291.262 588.411C291.98 588.837 292.566 589.44 293.02 590.222C293.475 591.003 293.702 591.947 293.702 593.055C293.702 594.185 293.428 595.2 292.882 596.102C292.335 596.997 291.511 597.704 290.41 598.222C289.309 598.741 287.924 599 286.255 599H277.423ZM281.376 595.697H285.627C287.061 595.697 288.095 595.424 288.727 594.877C289.366 594.323 289.686 593.613 289.686 592.746C289.686 592.1 289.526 591.518 289.206 590.999C288.887 590.474 288.432 590.062 287.843 589.763C287.253 589.458 286.55 589.305 285.733 589.305H281.376V595.697ZM281.376 586.461H285.286C285.968 586.461 286.582 586.337 287.129 586.088C287.676 585.832 288.105 585.474 288.418 585.012C288.737 584.543 288.897 583.989 288.897 583.35C288.897 582.505 288.599 581.809 288.002 581.262C287.413 580.715 286.536 580.442 285.371 580.442H281.376V586.461ZM301.693 577.182V599H297.74V577.182H301.693ZM306.573 599V577.182H310.525V595.687H320.134V599H306.573ZM328.117 577.182V599H324.165V577.182H328.117ZM332.038 580.495V577.182H349.446V580.495H342.703V599H338.782V580.495H332.038ZM351.911 577.182H356.374L361.712 586.834H361.925L367.262 577.182H371.726L363.789 590.861V599H359.847V590.861L351.911 577.182Z" fill="#0D688C"/>
</g>
<defs>
<clipPath id="clip0_4_114">
<rect width="566" height="612" fill="white"/>
</clipPath>
</defs>
</svg>
