<svg width="430" height="423" viewBox="0 0 430 423" fill="none" xmlns="http://www.w3.org/2000/svg">
<g clip-path="url(#clip0_4_70)">
<path d="M212.195 420.389C327.197 420.389 420.424 327.162 420.424 212.159C420.424 97.1574 327.197 3.92982 212.195 3.92982C97.1925 3.92982 3.9649 97.1574 3.9649 212.159C3.9649 327.162 97.1925 420.389 212.195 420.389Z" fill="#222A59"/>
<path d="M100.533 146.676C92.6903 154.51 93.8311 164.934 93.8283 175.051L93.8687 290.168C98.0933 283.317 106.523 278.654 113.299 274.222L113.216 175.394C113.213 171.544 112.315 162.396 118.315 156.396C125.553 148.046 207.958 72.1369 210.43 71.0369C212.195 69.5752 213.249 70.3045 214.057 71.0369C240.257 94.8903 275.695 128.219 301.486 152.514C304.799 155.102 310.662 163.455 309.985 177.925V238.561C309.963 245.366 309.228 253.26 310.685 259.883C312.548 267.304 321.114 268.875 326.504 264.235C329.616 261.556 329.78 257.352 329.78 253.585C329.771 228.239 329.655 202.661 329.78 177.338C329.836 165.497 331.228 153.967 321.641 145.321L224.681 54.0389C215.018 44.5171 209.486 44.6963 199.489 54.0389L100.533 146.676Z" fill="white"/>
<path d="M113.299 274.222C141.143 259.192 165.946 253.985 197.311 262.993C212.48 267.349 225.278 275.509 239.22 282.758C267.798 298.124 300.446 296.587 328.751 281.425C337.036 276.988 344.371 271.353 351.606 265.36C357.009 260.89 362.148 252.81 369.824 255.031C372.079 255.691 373.977 257.237 375.079 259.316C379.423 267.424 371.427 273.351 366.128 278.162C354.679 288.558 341.981 297.21 327.757 303.389C300.157 315.668 268.753 316.212 240.746 304.895C229.098 300.264 219.231 293.95 208.188 288.412C185.052 276.812 159.18 274.789 135.129 285.073C129.616 287.413 124.301 290.193 119.234 293.385C113.829 296.833 106.382 304.225 99.8739 301.562C95.2569 299.672 93.4967 294.845 93.8687 290.168C98.0933 283.317 106.523 278.653 113.299 274.222Z" fill="#0F5C8C"/>
<path d="M162.136 298.639C179.02 295.94 205.207 302.819 220.155 310.779C241.847 322.331 257.792 332.935 283.745 332.693C300.377 332.412 316.623 327.614 330.734 318.808C334.897 316.242 342.875 309.937 347.184 309.372C349.44 309.074 351.718 309.734 353.464 311.193C357.579 314.583 358.205 321.285 354.566 325.229C352.215 327.77 348.736 329.827 345.866 331.768C331.685 341.354 312.599 349.721 295.432 351.143C276.013 354.151 252.467 349.467 235.304 340.584C211.986 328.513 194.086 316.412 166.183 317.893C150.001 318.752 136.234 323.815 122.094 331.815C118.066 334.097 113.128 339.05 108.596 339.772C106.209 340.135 103.777 339.538 101.83 338.108C97.5581 334.966 97.0808 328.539 100.523 324.602C103.664 321.006 107.832 318.513 111.816 315.986C127.359 306.13 143.791 300.357 162.136 298.639Z" fill="#AEEBF2"/>
<path d="M206.105 169.102H182.991C181.187 169.102 179.725 170.564 179.725 172.368V195.482C179.725 197.286 181.187 198.748 182.991 198.748H206.105C207.909 198.748 209.371 197.286 209.371 195.482V172.368C209.371 170.564 207.909 169.102 206.105 169.102Z" fill="#AEEBF2"/>
<path d="M241.398 169.102H218.284C216.48 169.102 215.018 170.564 215.018 172.368V195.482C215.018 197.286 216.48 198.748 218.284 198.748H241.398C243.202 198.748 244.664 197.286 244.664 195.482V172.368C244.664 170.564 243.202 169.102 241.398 169.102Z" fill="#AEEBF2"/>
<path d="M206.105 205.807H182.991C181.187 205.807 179.725 207.269 179.725 209.073V232.187C179.725 233.991 181.187 235.453 182.991 235.453H206.105C207.909 235.453 209.371 233.991 209.371 232.187V209.073C209.371 207.269 207.909 205.807 206.105 205.807Z" fill="#AEEBF2"/>
<path d="M241.398 205.807H218.284C216.48 205.807 215.018 207.269 215.018 209.073V232.187C215.018 233.991 216.48 235.453 218.284 235.453H241.398C243.202 235.453 244.664 233.991 244.664 232.187V209.073C244.664 207.269 243.202 205.807 241.398 205.807Z" fill="#AEEBF2"/>
</g>
<defs>
<clipPath id="clip0_4_70">
<rect width="430" height="423" fill="white"/>
</clipPath>
</defs>
</svg>
